name C:/MyDriveSym/Projects/mobilecap/Data\Session20210813_0002\mocap\ForceDataProcessed\walkingTS4_forces.mot
datacolumns 19
datarows 27
range 1.37950000 1.39250000
endheader 
time	R_ground_force_vx	R_ground_force_vy	R_ground_force_vz	R_ground_force_px	R_ground_force_py	R_ground_force_pz	R_ground_torque_x	R_ground_torque_y	R_ground_torque_z	L_ground_force_vx	L_ground_force_vy	L_ground_force_vz	L_ground_force_px	L_ground_force_py	L_ground_force_pz	L_ground_torque_x	L_ground_torque_y	L_ground_torque_z	
          1.37950000	          0.00000000	          0.00000000	          0.00000000	          1.20838700	          0.00000000	         -0.17402500	          0.00000000	          0.00000000	          0.00000000	         19.60147800	        767.89816600	         16.64470500	          1.01590300	          0.00600000	         -0.28795800	          0.00000000	          3.78180100	          0.00000000	
          1.38000000	          0.00000000	          0.00000000	          0.00000000	          1.20930900	          0.00000000	         -0.17407400	          0.00000000	          0.00000000	          0.00000000	         19.78517900	        768.01183300	         16.68530500	          1.01599800	          0.00600000	         -0.28794100	          0.00000000	          3.79107200	          0.00000000	
          1.38050000	          0.00000000	          0.00000000	          0.00000000	          1.21023200	          0.00000000	         -0.17412300	          0.00000000	          0.00000000	          0.00000000	         19.96924700	        768.12660900	         16.72588100	          1.01609300	          0.00600000	         -0.28792400	          0.00000000	          3.80032000	          0.00000000	
          1.38100000	          0.00000000	          0.00000000	          0.00000000	          1.21115500	          0.00000000	         -0.17417100	          0.00000000	          0.00000000	          0.00000000	         20.15368300	        768.24249000	         16.76643100	          1.01618700	          0.00600000	         -0.28790600	          0.00000000	          3.80954400	          0.00000000	
          1.38150000	          0.00000000	          0.00000000	          0.00000000	          1.21207700	          0.00000000	         -0.17422000	          0.00000000	          0.00000000	          0.00000000	         20.33849200	        768.35947100	         16.80695500	          1.01628200	          0.00600000	         -0.28788900	          0.00000000	          3.81874400	          0.00000000	
          1.38200000	          0.00000000	          0.00000000	          0.00000000	          1.21300000	          0.00000000	         -0.17426900	          0.00000000	          0.00000000	          0.00000000	         20.52367500	        768.47754900	         16.84745100	          1.01637700	          0.00600000	         -0.28787100	          0.00000000	          3.82792000	          0.00000000	
          1.38250000	          0.00000000	          0.00000000	          0.00000000	          1.21392300	          0.00000000	         -0.17431800	          0.00000000	          0.00000000	          0.00000000	         20.70923400	        768.59671700	         16.88791700	          1.01647200	          0.00600000	         -0.28785400	          0.00000000	          3.83707100	          0.00000000	
          1.38300000	          0.00000000	          0.00000000	          0.00000000	          1.21484500	          0.00000000	         -0.17436600	          0.00000000	          0.00000000	          0.00000000	         20.89517400	        768.71697200	         16.92835400	          1.01656700	          0.00600000	         -0.28783600	          0.00000000	          3.84619600	          0.00000000	
          1.38350000	          0.00000000	          0.00000000	          0.00000000	          1.21576800	          0.00000000	         -0.17441500	          0.00000000	          0.00000000	          0.00000000	         21.08149600	        768.83830900	         16.96875800	          1.01666200	          0.00600000	         -0.28781800	          0.00000000	          3.85529500	          0.00000000	
          1.38400000	          0.00000000	          0.00000000	          0.00000000	          1.21669100	          0.00000000	         -0.17446400	          0.00000000	          0.00000000	          0.00000000	         21.26820300	        768.96072400	         17.00913000	          1.01675700	          0.00600000	         -0.28780100	          0.00000000	          3.86436700	          0.00000000	
          1.38450000	          0.00000000	          0.00000000	          0.00000000	          1.21761300	          0.00000000	         -0.17451300	          0.00000000	          0.00000000	          0.00000000	         21.45529600	        769.08421000	         17.04946600	          1.01685100	          0.00600000	         -0.28778300	          0.00000000	          3.87341200	          0.00000000	
          1.38500000	          0.00000000	          0.00000000	          0.00000000	          1.21853600	          0.00000000	         -0.17456100	          0.00000000	          0.00000000	          0.00000000	         21.64278000	        769.20876300	         17.08976500	          1.01694600	          0.00600000	         -0.28776500	          0.00000000	          3.88243000	          0.00000000	
          1.38550000	          0.00000000	          0.00000000	          0.00000000	          1.21945900	          0.00000000	         -0.17461000	          0.00000000	          0.00000000	          0.00000000	         21.83065500	        769.33437800	         17.13002700	          1.01704100	          0.00600000	         -0.28774700	          0.00000000	          3.89141900	          0.00000000	
          1.38600000	          0.00000000	          0.00000000	          0.00000000	          1.22038100	          0.00000000	         -0.17465900	          0.00000000	          0.00000000	          0.00000000	         22.01892500	        769.46104900	         17.17024800	          1.01713500	          0.00600000	         -0.28772800	          0.00000000	          3.90038100	          0.00000000	
          1.38650000	          0.00000000	          0.00000000	          0.00000000	          1.22130400	          0.00000000	         -0.17470800	          0.00000000	          0.00000000	          0.00000000	         22.20759200	        769.58877100	         17.21042700	          1.01723000	          0.00600000	         -0.28771000	          0.00000000	          3.90931300	          0.00000000	
          1.38700000	          0.00000000	          0.00000000	          0.00000000	          1.22222700	          0.00000000	         -0.17475600	          0.00000000	          0.00000000	          0.00000000	         22.39665700	        769.71753800	         17.25056200	          1.01732400	          0.00600000	         -0.28769200	          0.00000000	          3.91821600	          0.00000000	
          1.38750000	          0.00000000	          0.00000000	          0.00000000	          1.22314900	          0.00000000	         -0.17480500	          0.00000000	          0.00000000	          0.00000000	         22.58612400	        769.84734400	         17.29065100	          1.01741900	          0.00600000	         -0.28767400	          0.00000000	          3.92708900	          0.00000000	
          1.38800000	          0.00000000	          0.00000000	          0.00000000	          1.22407200	          0.00000000	         -0.17485400	          0.00000000	          0.00000000	          0.00000000	         22.77599400	        769.97818300	         17.33069200	          1.01751300	          0.00600000	         -0.28765500	          0.00000000	          3.93593100	          0.00000000	
          1.38850000	          0.00000000	          0.00000000	          0.00000000	          1.22499500	          0.00000000	         -0.17490300	          0.00000000	          0.00000000	          0.00000000	         22.96626900	        770.11005000	         17.37068300	          1.01760700	          0.00600000	         -0.28763700	          0.00000000	          3.94474300	          0.00000000	
          1.38900000	          0.00000000	          0.00000000	          0.00000000	          1.22591700	          0.00000000	         -0.17495100	          0.00000000	          0.00000000	          0.00000000	         23.15695200	        770.24293800	         17.41062100	          1.01770200	          0.00600000	         -0.28761800	          0.00000000	          3.95352400	          0.00000000	
          1.38950000	          0.00000000	          0.00000000	          0.00000000	          1.22684000	          0.00000000	         -0.17500000	          0.00000000	          0.00000000	          0.00000000	         23.34804400	        770.37684000	         17.45050500	          1.01779600	          0.00600000	         -0.28759900	          0.00000000	          3.96227300	          0.00000000	
          1.39000000	          0.00000000	          0.00000000	          0.00000000	          1.22776300	          0.00000000	         -0.17504900	          0.00000000	          0.00000000	          0.00000000	         23.53954700	        770.51175000	         17.49033100	          1.01789000	          0.00600000	         -0.28758100	          0.00000000	          3.97099000	          0.00000000	
          1.39050000	          0.00000000	          0.00000000	          0.00000000	          1.22868500	          0.00000000	         -0.17509800	          0.00000000	          0.00000000	          0.00000000	         23.73146300	        770.64766200	         17.53009800	          1.01798400	          0.00600000	         -0.28756200	          0.00000000	          3.97967400	          0.00000000	
          1.39100000	          0.00000000	          0.00000000	          0.00000000	          1.22960800	          0.00000000	         -0.17514600	          0.00000000	          0.00000000	          0.00000000	         23.92379500	        770.78456900	         17.56980200	          1.01807900	          0.00600000	         -0.28754300	          0.00000000	          3.98832600	          0.00000000	
          1.39150000	          0.00000000	          0.00000000	          0.00000000	          1.23053000	          0.00000000	         -0.17519500	          0.00000000	          0.00000000	          0.00000000	         24.11654300	        770.92246400	         17.60944200	          1.01817300	          0.00600000	         -0.28752400	          0.00000000	          3.99694400	          0.00000000	
          1.39200000	          0.00000000	          0.00000000	          0.00000000	          1.23145300	          0.00000000	         -0.17524400	          0.00000000	          0.00000000	          0.00000000	         24.30971000	        771.06134000	         17.64901300	          1.01826700	          0.00600000	         -0.28750500	          0.00000000	          4.00552900	          0.00000000	
          1.39250000	          0.00000000	          0.00000000	          0.00000000	          1.23237600	          0.00000000	         -0.17529300	          0.00000000	          0.00000000	          0.00000000	         24.50329700	        771.20119000	         17.68851500	          1.01836100	          0.00600000	         -0.28748600	          0.00000000	          4.01407900	          0.00000000	
